<?xml version="1.0" standalone="no"?><svg xmlns="http://www.w3.org/2000/svg" viewBox="0 0 1440 320"><path fill="#d6efff" fill-opacity="1" d="M0,224L6.2,229.3C12.3,235,25,245,37,245.3C49.2,245,62,235,74,208C86.2,181,98,139,111,133.3C123.1,128,135,160,148,186.7C160,213,172,235,185,208C196.9,181,209,107,222,90.7C233.8,75,246,117,258,138.7C270.8,160,283,160,295,138.7C307.7,117,320,75,332,69.3C344.6,64,357,96,369,112C381.5,128,394,128,406,144C418.5,160,431,192,443,202.7C455.4,213,468,203,480,192C492.3,181,505,171,517,149.3C529.2,128,542,96,554,106.7C566.2,117,578,171,591,208C603.1,245,615,267,628,256C640,245,652,203,665,192C676.9,181,689,203,702,224C713.8,245,726,267,738,240C750.8,213,763,139,775,117.3C787.7,96,800,128,812,117.3C824.6,107,837,53,849,32C861.5,11,874,21,886,48C898.5,75,911,117,923,133.3C935.4,149,948,139,960,122.7C972.3,107,985,85,997,64C1009.2,43,1022,21,1034,16C1046.2,11,1058,21,1071,37.3C1083.1,53,1095,75,1108,101.3C1120,128,1132,160,1145,176C1156.9,192,1169,192,1182,165.3C1193.8,139,1206,85,1218,106.7C1230.8,128,1243,224,1255,234.7C1267.7,245,1280,171,1292,160C1304.6,149,1317,203,1329,229.3C1341.5,256,1354,256,1366,240C1378.5,224,1391,192,1403,181.3C1415.4,171,1428,181,1434,186.7L1440,192L1440,320L1433.8,320C1427.7,320,1415,320,1403,320C1390.8,320,1378,320,1366,320C1353.8,320,1342,320,1329,320C1316.9,320,1305,320,1292,320C1280,320,1268,320,1255,320C1243.1,320,1231,320,1218,320C1206.2,320,1194,320,1182,320C1169.2,320,1157,320,1145,320C1132.3,320,1120,320,1108,320C1095.4,320,1083,320,1071,320C1058.5,320,1046,320,1034,320C1021.5,320,1009,320,997,320C984.6,320,972,320,960,320C947.7,320,935,320,923,320C910.8,320,898,320,886,320C873.8,320,862,320,849,320C836.9,320,825,320,812,320C800,320,788,320,775,320C763.1,320,751,320,738,320C726.2,320,714,320,702,320C689.2,320,677,320,665,320C652.3,320,640,320,628,320C615.4,320,603,320,591,320C578.5,320,566,320,554,320C541.5,320,529,320,517,320C504.6,320,492,320,480,320C467.7,320,455,320,443,320C430.8,320,418,320,406,320C393.8,320,382,320,369,320C356.9,320,345,320,332,320C320,320,308,320,295,320C283.1,320,271,320,258,320C246.2,320,234,320,222,320C209.2,320,197,320,185,320C172.3,320,160,320,148,320C135.4,320,123,320,111,320C98.5,320,86,320,74,320C61.5,320,49,320,37,320C24.6,320,12,320,6,320L0,320Z"></path></svg>