<?xml version="1.0" standalone="no"?><svg xmlns="http://www.w3.org/2000/svg" viewBox="0 0 1440 320"><path fill="#d6efff" fill-opacity="1" d="M0,256L6.2,256C12.3,256,25,256,37,234.7C49.2,213,62,171,74,133.3C86.2,96,98,64,111,80C123.1,96,135,160,148,160C160,160,172,96,185,58.7C196.9,21,209,11,222,37.3C233.8,64,246,128,258,165.3C270.8,203,283,213,295,192C307.7,171,320,117,332,112C344.6,107,357,149,369,192C381.5,235,394,277,406,250.7C418.5,224,431,128,443,80C455.4,32,468,32,480,69.3C492.3,107,505,181,517,208C529.2,235,542,213,554,218.7C566.2,224,578,256,591,256C603.1,256,615,224,628,202.7C640,181,652,171,665,176C676.9,181,689,203,702,202.7C713.8,203,726,181,738,197.3C750.8,213,763,267,775,288C787.7,309,800,299,812,288C824.6,277,837,267,849,256C861.5,245,874,235,886,192C898.5,149,911,75,923,58.7C935.4,43,948,85,960,117.3C972.3,149,985,171,997,176C1009.2,181,1022,171,1034,149.3C1046.2,128,1058,96,1071,106.7C1083.1,117,1095,171,1108,186.7C1120,203,1132,181,1145,186.7C1156.9,192,1169,224,1182,250.7C1193.8,277,1206,299,1218,293.3C1230.8,288,1243,256,1255,250.7C1267.7,245,1280,267,1292,250.7C1304.6,235,1317,181,1329,154.7C1341.5,128,1354,128,1366,122.7C1378.5,117,1391,107,1403,128C1415.4,149,1428,203,1434,229.3L1440,256L1440,0L1433.8,0C1427.7,0,1415,0,1403,0C1390.8,0,1378,0,1366,0C1353.8,0,1342,0,1329,0C1316.9,0,1305,0,1292,0C1280,0,1268,0,1255,0C1243.1,0,1231,0,1218,0C1206.2,0,1194,0,1182,0C1169.2,0,1157,0,1145,0C1132.3,0,1120,0,1108,0C1095.4,0,1083,0,1071,0C1058.5,0,1046,0,1034,0C1021.5,0,1009,0,997,0C984.6,0,972,0,960,0C947.7,0,935,0,923,0C910.8,0,898,0,886,0C873.8,0,862,0,849,0C836.9,0,825,0,812,0C800,0,788,0,775,0C763.1,0,751,0,738,0C726.2,0,714,0,702,0C689.2,0,677,0,665,0C652.3,0,640,0,628,0C615.4,0,603,0,591,0C578.5,0,566,0,554,0C541.5,0,529,0,517,0C504.6,0,492,0,480,0C467.7,0,455,0,443,0C430.8,0,418,0,406,0C393.8,0,382,0,369,0C356.9,0,345,0,332,0C320,0,308,0,295,0C283.1,0,271,0,258,0C246.2,0,234,0,222,0C209.2,0,197,0,185,0C172.3,0,160,0,148,0C135.4,0,123,0,111,0C98.5,0,86,0,74,0C61.5,0,49,0,37,0C24.6,0,12,0,6,0L0,0Z"></path></svg>